<svg width="50" height="50" viewBox="0 0 50 50" fill="none" xmlns="http://www.w3.org/2000/svg">
<rect x="1.25" y="1.25" width="47.5" height="47.5" rx="8.75" stroke="black" stroke-width="2.5"/>
<line y1="14.75" x2="50" y2="14.75" stroke="black" stroke-width="2.5"/>
<path d="M32.88 28.4055H28.4411C28.3819 27.9498 28.2605 27.5385 28.0771 27.1715C27.8936 26.8046 27.6509 26.4909 27.3491 26.2305C27.0472 25.9701 26.6892 25.7718 26.2749 25.6357C25.8665 25.4936 25.4137 25.4226 24.9165 25.4226C24.0347 25.4226 23.2741 25.6386 22.6349 26.0707C22.0017 26.5027 21.5134 27.1271 21.1701 27.9439C20.8327 28.7607 20.6641 29.7491 20.6641 30.9091C20.6641 32.1165 20.8357 33.1286 21.179 33.9453C21.5282 34.7562 22.0165 35.3687 22.6438 35.783C23.2771 36.1914 24.0258 36.3956 24.8899 36.3956C25.3752 36.3956 25.8162 36.3335 26.2127 36.2092C26.6152 36.0849 26.9673 35.9044 27.2692 35.6676C27.5769 35.425 27.8285 35.132 28.0238 34.7887C28.225 34.4395 28.3641 34.0459 28.4411 33.608L32.88 33.6346C32.803 34.4395 32.5692 35.2326 32.1786 36.0138C31.7939 36.7951 31.2642 37.5083 30.5895 38.1534C29.9148 38.7926 29.0921 39.3016 28.1214 39.6804C27.1567 40.0592 26.05 40.2486 24.8011 40.2486C23.1558 40.2486 21.6821 39.8875 20.38 39.1655C19.0838 38.4375 18.0599 37.3781 17.3082 35.9872C16.5566 34.5964 16.1808 32.9036 16.1808 30.9091C16.1808 28.9086 16.5625 27.2129 17.326 25.8221C18.0895 24.4312 19.1223 23.3748 20.4244 22.6527C21.7264 21.9306 23.1854 21.5696 24.8011 21.5696C25.902 21.5696 26.92 21.7235 27.8551 22.0312C28.7902 22.3331 29.6129 22.777 30.3232 23.3629C31.0334 23.9429 31.6104 24.6561 32.0543 25.5025C32.4982 26.3488 32.7734 27.3165 32.88 28.4055Z" fill="black"/>
</svg>
